0
SECTION
2
HEADER
9
$INSUNITS
70
4
9
$ACADVER
1
AC1014
9
$HANDSEED
5
FFFF
0
ENDSEC
0
SECTION
2
TABLES
0
TABLE
2
VPORT
5
8
100
AcDbSymbolTable
0
ENDTAB
0
TABLE
2
LTYPE
5
5
100
AcDbSymbolTable
0
LTYPE
5
14
100
AcDbSymbolTableRecord
100
AcDbLinetypeTableRecord
2
BYBLOCK
70
0
0
LTYPE
5
15
100
AcDbSymbolTableRecord
100
AcDbLinetypeTableRecord
2
BYLAYER
70
0
0
LTYPE
5
16
100
AcDbSymbolTableRecord
100
AcDbLinetypeTableRecord
2
DASHED
70
0
3
Dashed __ __ __ __ __ __ __ __ __ __ __ __ __ _
72
65
73
2
40
0.75
49
0.5
74
0
49
-0.25
74
0
0
ENDTAB
0
TABLE
2
LAYER
5
2
100
AcDbSymbolTable
70
2
0
LAYER
5
50
100
AcDbSymbolTableRecord
100
AcDbLayerTableRecord
2
0
70
0
62
7
6
CONTINUOUS
0
ENDTAB
0
TABLE
2
STYLE
5
3
100
AcDbSymbolTable
70
1
0
STYLE
5
11
100
AcDbSymbolTableRecord
100
AcDbTextStyleTableRecord
2
STANDARD
70
0
0
ENDTAB
0
TABLE
2
VIEW
5
6
100
AcDbSymbolTable
70
0
0
ENDTAB
0
TABLE
2
UCS
5
7
100
AcDbSymbolTable
70
0
0
ENDTAB
0
TABLE
2
APPID
5
9
100
AcDbSymbolTable
70
2
0
APPID
5
12
100
AcDbSymbolTableRecord
100
AcDbRegAppTableRecord
2
ACAD
70
0
0
ENDTAB
0
TABLE
2
DIMSTYLE
5
A
100
AcDbSymbolTable
70
1
0
ENDTAB
0
TABLE
2
BLOCK_RECORD
5
1
100
AcDbSymbolTable
70
1
0
BLOCK_RECORD
5
1F
100
AcDbSymbolTableRecord
100
AcDbBlockTableRecord
2
*MODEL_SPACE
0
BLOCK_RECORD
5
1B
100
AcDbSymbolTableRecord
100
AcDbBlockTableRecord
2
*PAPER_SPACE
0
ENDTAB
0
ENDSEC
0
SECTION
2
BLOCKS
0
BLOCK
5
20
100
AcDbEntity
100
AcDbBlockBegin
2
*MODEL_SPACE
0
ENDBLK
5
21
100
AcDbEntity
100
AcDbBlockEnd
0
BLOCK
5
1C
100
AcDbEntity
100
AcDbBlockBegin
2
*PAPER_SPACE
0
ENDBLK
5
1D
100
AcDbEntity
100
AcDbBlockEnd
0
ENDSEC
0
SECTION
2
ENTITIES
0
CIRCLE
5
100
100
AcDbEntity
8
0
100
AcDbCircle
10
220.67986668405428
20
341.75000000000841
30
0
40
2.1999999999999882
210
6.4225176886447674e-34
220
-2.5977173978406328e-51
230
1
0
CIRCLE
5
101
100
AcDbEntity
8
0
100
AcDbCircle
10
138.17986668405433
20
424.25000000000841
30
0
40
2.1999999999999882
210
6.4225176887827163e-34
220
-2.5977173979009249e-51
230
1
0
CIRCLE
5
102
100
AcDbEntity
8
0
100
AcDbCircle
10
220.67986668405428
20
424.25000000000841
30
7.1054273576010019e-14
40
2.2000000000000237
210
1.578364062210888e-30
220
3.944304526105059e-31
230
1
0
CIRCLE
5
103
100
AcDbEntity
8
0
100
AcDbCircle
10
138.17986668405433
20
341.75000000000841
30
-7.1054273576010019e-14
40
2.1999999999999882
210
6.4225176887827163e-34
220
-2.5977173979009249e-51
230
1
0
CIRCLE
5
104
100
AcDbEntity
8
0
100
AcDbCircle
10
179.42986668405433
20
383.00000000000841
30
0
40
42.499999999999993
210
6.4225176887827172e-34
220
-2.5977173979009258e-51
230
1
0
LWPOLYLINE
5
105
100
AcDbEntity
8
0
100
AcDbPolyline
90
8
70
1
43
0.0
10
47.988250098087455
20
80.230897862559431
42
0.41421356237310109
10
50.988250098087455
20
77.230897862559388
10
456.48825009808729
20
77.230897862559388
42
0.4142135623731002
10
459.48825009808729
20
80.230897862559388
10
459.48825009808735
20
485.73089786255929
42
0.41421356237311585
10
456.48825009808729
20
488.73089786255935
10
50.988250098087491
20
488.73089786255935
42
0.41421356237310364
10
47.988250098087434
20
485.73089786255935
0
CIRCLE
5
106
100
AcDbEntity
8
0
100
AcDbCircle
10
253.73825009808741
20
472.59447203520199
30
3.5527136788005009e-14
40
2.999999999999992
210
0
220
0
230
1
0
ENDSEC
0
SECTION
2
OBJECTS
0
DICTIONARY
5
C
100
AcDbDictionary
3
ACAD_GROUP
350
D
3
ACAD_MLINESTYLE
350
17
0
DICTIONARY
5
D
100
AcDbDictionary
0
DICTIONARY
5
1A
330
C
100
AcDbDictionary
0
DICTIONARY
5
17
100
AcDbDictionary
0
ENDSEC
0
EOF
